<?xml version="1.0" standalone="no"?>
<!DOCTYPE svg PUBLIC "-//W3C//DTD SVG 20010904//EN"
 "http://www.w3.org/TR/2001/REC-SVG-20010904/DTD/svg10.dtd">
<svg version="1.0" xmlns="http://www.w3.org/2000/svg"
 width="592.000000pt" height="592.000000pt" viewBox="0 0 592.000000 592.000000"
 preserveAspectRatio="xMidYMid meet">
<metadata>
Created by potrace 1.14, written by Peter Selinger 2001-2017
</metadata>
<g transform="translate(0.000000,592.000000) scale(0.100000,-0.100000)"
fill="#000000" stroke="none">
<path d="M2660 5885 c-582 -73 -1093 -292 -1536 -660 -140 -116 -350 -333
-446 -460 -306 -408 -483 -814 -574 -1320 -26 -142 -28 -168 -28 -465 -1 -213
3 -341 12 -395 21 -130 51 -274 78 -373 l25 -93 -24 -19 c-13 -10 -36 -37 -51
-59 l-28 -40 37 -56 c48 -72 131 -145 215 -190 38 -19 70 -35 74 -35 3 0 -12
38 -34 85 -81 177 -167 455 -203 665 -43 244 -55 583 -28 805 71 590 286 1094
657 1539 505 606 1249 978 2034 1016 708 33 1372 -181 1920 -619 1021 -817
1362 -2219 831 -3410 -28 -62 -51 -116 -51 -121 0 -6 43 -30 54 -30 6 0 95
207 128 295 230 617 244 1298 41 1930 -240 745 -765 1355 -1482 1722 -69 34
-128 63 -132 63 -5 0 -32 11 -62 24 -155 72 -439 150 -677 188 -168 26 -583
34 -750 13z"/>
<path d="M2765 5783 c-110 -9 -241 -27 -345 -49 -152 -31 -144 -29 -305 -81
-237 -77 -474 -192 -680 -331 -697 -471 -1135 -1184 -1241 -2022 -17 -136 -19
-490 -4 -635 21 -193 74 -430 140 -621 38 -108 139 -342 152 -350 22 -14 16
10 -25 97 -127 271 -208 564 -243 884 -19 168 -14 523 10 681 60 399 185 751
381 1069 449 730 1169 1202 2015 1322 193 27 568 25 762 -5 616 -95 1132 -355
1563 -787 160 -160 159 -158 251 -280 418 -552 607 -1173 571 -1879 -12 -238
-59 -483 -139 -721 -35 -104 -59 -163 -134 -332 -7 -18 -10 -34 -5 -37 11 -7
74 124 127 265 131 350 194 740 179 1099 -27 651 -259 1246 -676 1735 -105
123 -320 330 -404 390 -16 11 -49 36 -74 56 -146 113 -444 276 -654 357 -221
85 -504 151 -732 171 -110 10 -393 12 -490 4z"/>
<path d="M3736 5505 l6 -45 -39 0 c-22 0 -62 7 -89 15 -75 23 -94 20 -94 -13
0 -26 4 -28 61 -39 113 -22 104 -56 -13 -46 -65 6 -68 5 -68 -16 0 -23 13 -26
113 -22 47 2 57 -1 57 -14 0 -18 -50 -42 -101 -48 -52 -7 -69 -17 -75 -46 -9
-43 -12 -54 -29 -100 -10 -29 -13 -47 -6 -54 5 -5 63 -18 129 -28 185 -28 301
-82 389 -179 54 -60 80 -77 96 -61 9 9 6 23 -12 55 l-23 44 22 29 c24 33 68
228 57 256 -3 9 -22 25 -42 34 -40 19 -49 49 -12 40 12 -3 36 -11 53 -18 17
-7 38 -10 47 -6 18 7 41 71 33 93 -8 20 -150 87 -230 109 l-66 18 -25 -23
c-27 -25 -34 -73 -12 -87 6 -4 27 -13 46 -18 57 -17 51 -35 -13 -35 -54 0 -58
-2 -116 -55 l-61 -56 -29 18 c-31 18 -40 43 -17 43 23 0 45 33 59 90 11 47 19
58 56 83 27 18 42 36 42 50 0 29 -48 77 -77 77 -23 0 -24 -2 -17 -45z m279
-125 c71 -26 105 -49 105 -71 0 -17 -31 -16 -55 3 -15 11 -52 29 -83 38 -43
13 -58 23 -60 39 -4 27 -2 27 93 -9z m-95 -140 c0 -5 -9 -10 -19 -10 -11 0
-23 5 -26 10 -4 6 5 10 19 10 14 0 26 -4 26 -10z m-326 -25 c12 -12 13 -22 5
-43 -13 -34 -38 -62 -56 -62 -21 0 -16 64 8 94 24 31 23 30 43 11z m430 -17
c5 -9 7 -20 3 -24 -8 -8 -47 24 -47 38 0 15 32 5 44 -14z m-153 -8 c21 -12 25
-35 9 -45 -15 -9 -60 22 -60 40 0 17 23 19 51 5z m-177 -52 c8 -14 7 -21 -6
-34 -30 -30 -75 9 -48 42 16 18 39 15 54 -8z m339 -26 c20 -18 23 -42 3 -42
-20 0 -66 39 -66 56 0 18 35 10 63 -14z m-181 -17 c21 -47 -42 -76 -84 -38
-34 31 -15 63 39 63 26 0 36 -6 45 -25z m108 -40 c39 -20 54 -49 40 -75 -13
-24 -40 -26 -80 -5 -23 12 -30 22 -30 45 0 17 7 33 18 39 22 13 18 13 52 -4z"/>
<path d="M2032 5492 c-11 -7 -10 -17 4 -50 26 -67 20 -72 -138 -127 -86 -30
-118 -55 -118 -89 0 -50 29 -43 165 39 84 51 132 64 141 40 5 -11 -8 -30 -37
-58 -143 -138 -225 -282 -205 -361 7 -29 41 -43 61 -26 7 6 21 44 30 83 24
107 57 171 122 236 65 65 125 91 206 91 78 0 122 -19 204 -87 58 -48 83 -63
102 -61 19 2 27 10 29 27 3 18 -10 37 -55 80 -79 76 -135 96 -273 97 -86 0
-105 3 -108 15 -5 27 116 69 200 69 50 0 81 20 76 49 -5 25 -46 24 -152 -4
-54 -14 -116 -25 -137 -25 -35 0 -39 3 -47 33 -6 24 -14 33 -33 35 -13 1 -30
-2 -37 -6z"/>
<path d="M2935 5000 c-3 -5 -10 -44 -14 -85 -5 -42 -12 -79 -15 -82 -3 -4 -25
-7 -48 -7 l-41 -1 -20 83 -19 82 -38 0 c-68 0 -70 -2 -70 -100 0 -82 -1 -88
-22 -94 -66 -17 -67 -15 -121 115 l-15 37 -47 -11 -47 -11 6 -91 c7 -91 7 -91
-19 -103 -50 -23 -62 -16 -101 58 -41 76 -51 81 -108 54 l-34 -17 19 -68 c27
-96 25 -106 -17 -126 -41 -20 -28 -29 -104 71 -19 25 -41 45 -48 46 -8 0 -28
-10 -45 -22 -18 -12 -33 -22 -35 -23 -1 -1 12 -37 29 -79 17 -42 29 -82 26
-89 -3 -7 -19 -20 -36 -30 l-31 -18 -65 62 -65 62 -35 -27 c-19 -15 -35 -32
-35 -37 0 -6 19 -42 41 -81 l41 -71 -30 -28 c-17 -16 -34 -29 -38 -29 -3 0
-38 23 -76 52 l-70 51 -35 -36 -36 -35 47 -62 c26 -34 50 -68 52 -75 3 -7 -7
-26 -22 -44 l-26 -32 -74 41 c-40 22 -78 40 -83 40 -5 0 -22 -16 -37 -36 l-27
-35 61 -62 c34 -35 62 -66 62 -70 0 -15 -44 -67 -57 -67 -7 0 -43 14 -80 30
-36 17 -69 30 -72 30 -3 0 -17 -19 -30 -42 l-24 -42 30 -25 c16 -14 47 -40 68
-57 38 -29 39 -31 26 -62 -21 -50 -29 -53 -106 -31 -38 10 -75 19 -82 19 -12
0 -43 -61 -43 -84 1 -6 34 -30 75 -54 l74 -43 -16 -45 c-11 -33 -19 -43 -32
-40 -9 3 -48 8 -87 12 l-71 6 -12 -32 c-20 -60 -17 -65 69 -101 l80 -33 -6
-35 c-4 -20 -9 -39 -11 -43 -2 -5 -42 -8 -88 -8 -46 0 -86 -3 -88 -7 -3 -5 -8
-29 -12 -54 l-7 -46 87 -23 86 -23 -3 -46 -3 -46 -55 -8 c-134 -19 -121 -11
-118 -70 l3 -52 65 -8 c112 -12 110 -12 110 -62 0 -49 10 -43 -123 -76 l-49
-12 7 -46 c4 -25 9 -49 12 -53 2 -5 42 -8 88 -8 l84 0 10 -37 c6 -21 11 -41
11 -44 0 -4 -36 -22 -80 -40 -85 -36 -87 -39 -69 -102 9 -33 14 -38 32 -33 12
3 52 8 88 12 l66 6 15 -38 c9 -22 14 -42 12 -46 -3 -4 -34 -24 -69 -44 -36
-19 -68 -40 -71 -46 -3 -5 1 -29 11 -54 18 -48 19 -49 109 -17 64 22 84 18
104 -23 l17 -37 -39 -31 c-22 -17 -53 -43 -69 -57 l-30 -26 23 -41 c13 -23 27
-42 31 -42 7 0 67 23 116 46 44 20 49 18 74 -22 l22 -36 -63 -63 -63 -63 22
-31 c28 -39 52 -39 126 0 42 22 64 29 86 24 18 -4 59 3 114 20 91 27 93 31 49
70 -7 6 -42 51 -79 100 -192 258 -299 527 -334 847 -35 316 31 654 185 944 81
155 161 266 280 389 228 237 536 407 849 469 167 33 365 47 365 26 0 -5 -9
-10 -19 -10 -11 0 -50 -15 -88 -34 -62 -31 -78 -34 -184 -40 -72 -4 -141 -14
-180 -26 -122 -38 -214 -120 -243 -220 -13 -44 -12 -55 14 -161 23 -98 42
-154 114 -345 12 -32 95 -104 120 -104 7 0 19 6 25 14 9 11 6 27 -14 72 -89
199 -99 233 -98 339 0 105 14 156 50 185 59 48 99 72 193 118 136 66 230 92
360 99 l105 5 37 -38 c43 -46 69 -91 92 -161 28 -85 39 -77 31 23 -10 119 -21
176 -44 223 -10 22 -17 42 -14 44 2 3 32 -1 66 -9 312 -72 604 -229 808 -436
67 -68 80 -88 59 -88 -5 0 -10 -9 -10 -20 0 -11 5 -20 10 -20 6 0 10 9 10 21
0 11 4 19 9 17 15 -5 121 -142 121 -155 0 -7 4 -13 10 -13 27 0 157 -245 209
-394 160 -453 102 -1002 -148 -1409 -45 -73 -45 -71 29 -81 25 -4 105 -18 179
-32 168 -33 181 -25 80 54 -38 29 -69 58 -69 64 0 5 8 23 17 39 20 33 38 36
109 14 78 -23 89 -21 107 27 19 46 18 47 -64 93 -78 44 -74 38 -60 85 l13 42
81 -7 c45 -4 86 -7 91 -8 5 -1 15 20 22 46 l12 49 -36 15 c-131 54 -133 55
-116 121 6 21 12 22 90 22 93 0 104 8 104 72 0 32 -3 35 -47 46 -135 36 -123
29 -123 71 0 21 6 43 13 49 6 5 44 13 82 17 87 9 97 16 91 68 -3 22 -7 41 -9
44 -6 5 -30 10 -102 18 -66 8 -75 15 -75 62 0 38 8 43 103 67 66 18 67 19 67
53 0 66 -11 73 -104 73 -91 0 -96 3 -96 61 0 21 6 32 23 38 12 5 48 20 79 34
l56 25 -10 42 c-6 23 -17 44 -24 47 -6 2 -46 0 -88 -4 -86 -10 -94 -7 -102 49
-5 32 -4 34 70 76 l76 42 -15 38 c-9 20 -20 41 -25 46 -8 8 -105 -11 -153 -30
-11 -4 -22 4 -37 28 -11 18 -20 38 -20 44 0 5 31 34 69 63 l69 52 -25 45 c-14
24 -25 44 -26 44 -1 0 -35 -14 -76 -30 -40 -17 -78 -30 -83 -30 -16 0 -47 43
-48 67 0 12 8 28 18 35 9 8 35 33 56 55 l39 42 -24 35 c-13 20 -31 36 -39 36
-8 0 -41 -16 -73 -35 -71 -43 -90 -44 -117 -5 l-22 31 51 66 c28 36 51 68 51
72 -1 9 -21 33 -47 55 -22 19 -23 18 -89 -33 -37 -28 -69 -51 -73 -51 -13 1
-61 50 -61 63 0 7 14 35 31 62 50 79 51 86 11 117 -19 16 -37 28 -41 28 -3 0
-33 -27 -67 -61 -66 -65 -76 -67 -117 -22 -16 19 -16 23 13 93 17 41 29 79 26
85 -2 7 -21 20 -42 30 l-38 18 -25 -30 c-14 -16 -40 -47 -57 -69 l-31 -39 -37
17 c-42 21 -43 28 -16 122 18 65 19 70 2 82 -25 19 -71 27 -85 16 -7 -6 -25
-36 -42 -67 -16 -32 -35 -60 -42 -62 -7 -3 -29 1 -49 7 l-36 12 7 62 c3 33 9
73 12 87 5 24 1 28 -43 43 -55 19 -51 22 -91 -76 -30 -72 -40 -78 -100 -62
-22 6 -23 12 -23 95 0 85 -1 89 -24 95 -13 3 -36 4 -51 2 -26 -3 -30 -9 -50
-83 l-22 -80 -41 1 c-23 0 -44 3 -46 5 -2 2 -9 39 -15 83 -6 43 -14 82 -17 87
-7 12 -91 11 -99 -1z"/>
<path d="M766 4527 c-25 -25 -66 -98 -66 -117 0 -19 19 -10 56 26 41 42 56 34
47 -23 -4 -25 -2 -33 9 -33 9 0 21 7 28 15 21 26 40 1 27 -35 -14 -37 0 -57
27 -37 20 15 33 90 22 131 -6 26 -67 79 -103 90 -17 5 -29 1 -47 -17z"/>
<path d="M4945 4500 c-10 -16 16 -45 83 -94 60 -44 79 -76 46 -76 -20 0 -50
16 -103 57 -51 38 -81 43 -81 12 0 -23 54 -79 76 -79 20 0 54 -37 54 -59 0
-27 -27 -52 -48 -44 -9 4 -39 21 -67 39 -96 61 -225 92 -225 54 0 -17 65 -58
130 -79 36 -12 92 -37 125 -54 51 -27 62 -38 73 -72 18 -54 11 -161 -18 -257
-19 -63 -20 -80 -10 -93 16 -19 44 -19 59 -1 16 19 41 156 41 224 0 75 8 102
30 102 25 0 50 -59 50 -117 0 -51 12 -73 41 -73 25 0 29 21 22 110 -5 69 -4
80 11 86 9 4 20 4 23 1 3 -4 9 -44 13 -91 10 -99 16 -122 35 -130 39 -15 54
14 36 70 -5 16 -17 91 -27 167 l-17 138 21 29 c40 53 18 86 -44 67 -30 -9 -39
-6 -106 36 -40 25 -99 66 -132 91 -59 46 -80 54 -91 36z m255 -215 c56 -29 66
-86 23 -127 -42 -38 -68 -49 -95 -39 -42 16 -60 45 -56 92 2 37 7 45 26 47 12
2 27 12 32 23 13 23 31 24 70 4z"/>
<path d="M1100 4448 c-68 -13 -124 -52 -169 -118 l-34 -49 -46 5 c-32 4 -52
14 -67 30 -13 16 -29 23 -45 22 -18 -2 -25 2 -27 20 -3 17 -9 22 -25 20 -19
-3 -23 -12 -28 -58 -4 -30 -10 -66 -14 -79 -7 -22 -6 -23 18 -17 22 5 29 2 42
-24 13 -25 19 -29 44 -24 22 5 32 1 44 -17 18 -25 16 -38 -14 -131 -25 -75
-24 -99 6 -157 27 -53 70 -91 105 -91 19 0 21 4 16 26 -4 14 -20 43 -36 66
-39 54 -44 89 -26 178 23 110 75 208 138 262 88 74 97 78 165 78 67 0 78 8 69
46 -7 27 -22 29 -116 12z m-247 -214 c10 -10 -12 -44 -28 -44 -16 0 -18 9 -9
34 6 16 25 21 37 10z"/>
<path d="M3026 4319 c3 -6 1 -22 -6 -35 -11 -19 -10 -27 4 -49 19 -28 38 -32
56 -10 17 20 4 82 -20 95 -25 13 -43 13 -34 -1z"/>
<path d="M1105 4300 c-4 -6 -7 -35 -8 -65 -3 -55 -16 -83 -36 -71 -6 4 -11 24
-11 45 0 46 -20 66 -55 57 -31 -8 -92 -123 -102 -191 -5 -41 -4 -45 21 -56 29
-14 31 -21 14 -48 -6 -10 -8 -26 -5 -35 11 -28 48 -18 86 24 42 46 71 52 71
16 0 -47 40 -44 60 5 10 24 10 37 -4 73 -16 43 -16 45 13 126 31 85 30 110 -5
124 -22 9 -32 8 -39 -4z m-99 -114 c6 -17 -21 -79 -42 -97 -23 -19 -28 15 -9
66 18 44 40 58 51 31z m19 -106 c11 -18 -6 -50 -26 -50 -21 0 -24 12 -9 41 12
21 25 25 35 9z"/>
<path d="M2640 4175 c0 -8 -6 -24 -12 -35 -11 -17 -9 -23 8 -41 18 -17 25 -19
43 -10 25 14 27 48 5 79 -17 25 -44 29 -44 7z"/>
<path d="M564 4156 c-3 -13 -6 -45 -7 -72 -2 -47 -1 -49 36 -67 24 -11 55 -17
80 -15 37 3 44 8 64 43 27 47 28 55 9 80 -14 19 -15 18 -33 -13 -24 -42 -43
-41 -43 2 0 60 -29 56 -49 -6 -7 -21 -19 -38 -27 -38 -18 0 -18 12 1 56 8 20
12 40 9 45 -10 17 -34 9 -40 -15z"/>
<path d="M3430 4030 c0 -5 7 -10 15 -10 8 0 15 5 15 10 0 6 -7 10 -15 10 -8 0
-15 -4 -15 -10z"/>
<path d="M4190 4006 c0 -27 15 -42 25 -26 8 13 -3 50 -16 50 -5 0 -9 -11 -9
-24z"/>
<path d="M4150 3985 c7 -9 15 -13 17 -11 7 7 -7 26 -19 26 -6 0 -6 -6 2 -15z"/>
<path d="M4270 3955 c-10 -13 -9 -15 9 -15 11 0 21 4 21 9 0 18 -18 21 -30 6z"/>
<path d="M4075 3646 c-14 -29 -32 -76 -40 -102 -7 -27 -21 -71 -30 -99 -10
-27 -19 -55 -21 -61 -1 -6 -18 -18 -36 -27 -33 -15 -41 -15 -149 8 -63 13
-164 41 -225 63 -61 21 -134 42 -162 46 l-51 7 1 -38 c0 -21 -11 -69 -23 -108
-19 -55 -29 -71 -45 -73 -21 -3 -114 54 -114 70 0 19 -38 6 -44 -14 -3 -13
-25 -45 -50 -71 l-44 -48 -71 35 c-39 20 -78 48 -87 62 -13 19 -23 24 -41 19
-13 -3 -33 0 -44 6 -17 9 -25 7 -42 -9 -27 -24 -115 -72 -132 -72 -22 0 -111
-94 -190 -200 -11 -15 -54 -71 -95 -125 -74 -97 -103 -141 -157 -240 -22 -41
-27 -63 -28 -121 0 -87 11 -104 69 -104 54 0 201 25 266 44 29 9 99 43 156 78
117 69 113 60 77 166 -18 56 -13 69 33 78 l37 7 -7 92 c-7 103 -6 105 67 138
53 24 93 22 100 -4 3 -12 10 -18 15 -15 5 3 15 -1 22 -9 7 -9 21 -13 31 -10
28 9 37 -39 13 -66 -12 -14 -17 -33 -15 -62 1 -23 -6 -58 -15 -80 -16 -35 -21
-38 -46 -33 -24 5 -28 2 -28 -17 0 -38 -24 -61 -63 -61 -31 0 -36 -4 -41 -28
-4 -19 -13 -29 -31 -34 -31 -8 -33 -35 -5 -87 11 -20 20 -50 20 -67 0 -49 31
-61 167 -66 75 -3 145 0 193 8 l74 13 -2 45 c-3 52 4 64 38 75 20 6 23 5 13
-6 -16 -16 -17 -71 -3 -85 7 -7 26 -6 60 5 52 16 52 15 54 91 1 15 8 26 19 28
14 3 17 -4 17 -47 0 -28 2 -51 5 -51 13 0 82 40 93 53 17 20 29 160 20 227 -4
30 -23 106 -42 168 -42 133 -52 187 -38 196 6 3 43 1 83 -5 86 -13 144 -17
401 -25 l198 -6 11 29 c18 46 30 94 40 163 8 61 33 183 60 296 17 73 11 82
-49 76 -41 -3 -56 0 -80 17 -17 11 -32 21 -35 21 -3 0 -17 -24 -32 -54z m-875
-382 c0 -9 -5 -14 -12 -12 -18 6 -21 28 -4 28 9 0 16 -7 16 -16z m110 -224 c0
-13 -7 -20 -20 -20 -13 0 -20 7 -20 20 0 13 7 20 20 20 13 0 20 -7 20 -20z
m-646 -206 c31 -30 20 -51 -41 -74 -79 -29 -91 -14 -33 45 49 50 52 51 74 29z
m709 -80 c9 -10 -4 -34 -18 -34 -17 0 -28 17 -20 30 7 11 28 13 38 4z"/>
<path d="M2796 3635 c4 -16 18 -54 32 -83 43 -90 109 -114 233 -87 163 36 195
59 185 129 -8 52 -31 54 -44 3 -8 -31 -23 -39 -98 -51 -11 -1 -25 -6 -30 -9
-6 -3 -16 -2 -24 3 -8 5 -21 3 -32 -3 -14 -9 -23 -9 -38 1 -17 10 -20 10 -20
-3 0 -18 -5 -18 -31 -5 -10 6 -19 17 -19 26 0 8 -12 20 -27 26 -16 6 -43 28
-61 47 l-32 36 6 -30z"/>
<path d="M606 2939 c-15 -11 -35 -38 -46 -60 -11 -21 -32 -46 -45 -55 -24 -16
-27 -15 -46 2 -21 19 -21 39 -3 102 5 18 2 22 -15 22 -19 0 -21 -6 -21 -59 0
-73 11 -105 44 -126 44 -29 79 -13 125 60 40 63 64 81 94 69 21 -8 30 -54 18
-86 -9 -24 0 -38 25 -38 2 0 4 30 4 66 0 59 -3 68 -29 95 -35 34 -68 37 -105
8z"/>
<path d="M5240 2919 c1 -32 4 -36 65 -63 36 -16 62 -32 59 -37 -7 -12 -94 -49
-115 -49 -11 0 -19 -1 -20 -2 -5 -30 -10 -88 -6 -88 3 0 43 18 89 41 77 37 88
40 153 37 l70 -3 3 38 3 37 -67 0 c-63 0 -72 3 -129 42 -33 22 -70 50 -82 61
l-23 20 0 -34z"/>
<path d="M719 2715 c-3 -2 -65 -14 -139 -25 -74 -11 -135 -22 -136 -23 -1 -1
1 -17 3 -35 5 -32 8 -33 37 -28 17 3 50 8 72 12 l41 6 7 -46 c4 -25 5 -50 2
-55 -4 -5 -35 -13 -70 -16 l-64 -7 5 -37 c3 -20 6 -37 7 -38 1 0 38 7 84 17
45 10 113 21 151 25 l69 7 -5 36 c-3 21 -6 38 -7 38 -1 1 -28 -4 -61 -11 -33
-7 -63 -10 -67 -8 -8 4 -22 92 -16 99 3 2 33 9 67 15 48 9 61 15 57 26 -3 8
-6 23 -6 34 0 17 -20 26 -31 14z"/>
<path d="M5206 2598 c-3 -13 -14 -65 -26 -117 -14 -64 -17 -98 -10 -105 14
-14 21 -3 27 43 5 35 9 40 27 36 11 -2 72 -16 135 -31 121 -29 130 -27 131 22
0 19 -14 24 -136 49 l-135 28 7 26 c11 41 10 64 -3 68 -7 3 -14 -6 -17 -19z"/>
<path d="M501 2342 c4 -38 17 -46 71 -43 l56 2 12 -36 c14 -42 7 -55 -46 -80
-33 -15 -34 -18 -28 -53 4 -20 8 -39 10 -40 1 -2 26 14 56 35 29 21 90 63 135
92 80 52 81 53 71 83 -6 16 -16 31 -22 33 -23 7 -316 13 -315 7z m248 -41 c10
-7 4 -15 -25 -35 -21 -14 -42 -26 -45 -26 -10 0 -21 49 -14 60 8 12 65 13 84
1z"/>
<path d="M5140 2324 c-17 -43 -12 -51 30 -58 22 -3 88 -22 146 -42 58 -20 107
-34 109 -32 3 2 6 19 7 37 3 33 3 33 -67 51 -38 10 -103 30 -143 44 l-73 25
-9 -25z"/>
<path d="M5101 2207 c-14 -18 -41 -94 -41 -118 0 -27 41 -68 75 -75 24 -4 42
3 93 37 55 37 65 41 87 31 33 -15 33 -51 -1 -91 -25 -30 -25 -51 0 -51 18 0
56 90 56 133 0 41 -37 80 -75 80 -14 0 -50 -17 -80 -37 -67 -47 -108 -47 -113
-2 -2 18 4 40 18 58 27 37 10 69 -19 35z"/>
<path d="M840 2125 c-25 -13 -87 -41 -137 -61 -91 -36 -101 -45 -85 -72 7 -10
32 -1 108 37 54 27 101 48 103 46 2 -3 -14 -28 -36 -57 -22 -29 -57 -78 -78
-110 -31 -47 -35 -59 -25 -77 6 -12 12 -21 14 -21 2 0 42 17 88 38 45 21 107
47 136 57 52 19 59 28 43 54 -8 12 -24 6 -91 -28 -45 -24 -84 -40 -87 -37 -6
5 16 38 84 128 l44 57 -18 35 -18 34 -45 -23z"/>
<path d="M3220 2009 c-493 -38 -972 -128 -1490 -279 -367 -107 -618 -150 -867
-150 -357 0 -632 112 -774 313 l-49 70 0 -99 c0 -124 17 -392 31 -504 41 -311
152 -461 429 -577 225 -95 354 -117 675 -117 378 1 611 31 1585 209 362 66
496 80 700 72 618 -24 1140 -294 1576 -814 52 -62 99 -115 104 -118 13 -8 13
156 0 290 -5 55 -26 236 -47 402 -20 166 -35 305 -32 308 3 3 197 70 430 149
270 91 425 148 427 157 1 8 -28 40 -65 70 -216 178 -534 343 -853 444 -100 31
-340 91 -425 106 -352 60 -580 79 -955 77 -162 0 -342 -4 -400 -9z m42 -344
c3 -69 1 -80 -15 -83 -12 -2 -22 7 -32 31 -15 37 -61 81 -95 92 -13 4 -20 15
-20 32 0 22 3 24 26 19 68 -17 80 -17 94 -1 24 28 38 -3 42 -90z m498 75 c0
-10 -8 -23 -17 -29 -16 -8 -19 -33 -23 -215 l-5 -205 -28 -29 c-31 -32 -85
-52 -141 -52 -30 0 -36 4 -36 21 0 11 7 27 15 35 12 13 15 51 17 197 3 236 2
239 -16 253 -9 6 -16 19 -16 28 0 14 16 16 125 16 117 0 125 -1 125 -20z
m-693 -6 c3 -8 -3 -25 -14 -37 -31 -34 -34 -44 -22 -71 13 -27 13 -27 113 -62
122 -42 166 -93 166 -192 0 -66 -42 -131 -102 -161 -24 -11 -52 -21 -61 -21
-26 0 -21 39 8 62 33 25 34 72 3 92 -13 8 -57 27 -98 42 -89 32 -112 47 -139
95 -26 45 -28 136 -5 180 16 33 97 89 126 89 10 0 21 -7 25 -16z m883 -10 c0
-14 -9 -33 -20 -42 -11 -10 -29 -39 -39 -67 -13 -35 -24 -50 -37 -50 -17 0
-19 8 -17 70 5 113 5 115 63 115 47 0 50 -2 50 -26z m143 0 c32 -4 60 -11 63
-15 5 -9 -4 -94 -37 -328 l-20 -143 20 -22 c13 -14 17 -26 12 -35 -8 -12 -24
-12 -107 -1 -55 7 -109 17 -121 21 -28 10 -30 35 -3 44 12 4 21 18 24 38 7 37
30 212 46 342 15 116 15 118 43 111 13 -3 49 -8 80 -12z m198 -33 c8 -7 -14
-168 -24 -177 -15 -15 -36 8 -42 48 -3 24 -13 60 -22 80 -23 54 -13 70 39 62
24 -4 46 -9 49 -13z m234 -49 c69 -20 101 -34 103 -45 2 -11 -6 -19 -22 -23
-17 -4 -28 -15 -32 -33 -4 -14 -26 -98 -50 -186 -47 -173 -50 -191 -33 -229 7
-14 9 -32 6 -40 -10 -26 -103 14 -149 63 -47 50 -48 74 -8 218 72 258 69 243
54 258 -22 21 -17 45 9 45 12 0 67 -13 122 -28z m-2099 -22 c92 -87 74 -239
-49 -420 -47 -68 -128 -150 -148 -150 -11 0 -47 10 -81 21 -297 101 -444 319
-304 449 22 20 40 25 96 28 58 4 77 0 126 -22 32 -15 60 -23 64 -19 3 5 19 25
34 46 15 21 47 52 70 69 37 27 47 29 103 26 49 -3 68 -9 89 -28z m2377 -56
c52 -18 64 -47 24 -58 -33 -8 -51 -46 -87 -186 -47 -185 -64 -216 -133 -245
-54 -22 -79 -20 -75 7 2 15 13 24 38 31 51 13 79 44 96 107 9 30 26 93 40 140
28 98 31 162 9 180 -46 38 6 52 88 24z m-1318 -159 c34 -33 33 -78 -2 -112
-15 -16 -21 -29 -15 -31 7 -2 12 -15 12 -28 0 -21 -3 -24 -27 -18 -42 9 -76
36 -96 77 -16 31 -17 42 -7 72 22 66 90 86 135 40z m-2120 -4 c3 -6 -4 -18
-15 -29 -20 -18 -20 -19 -1 -158 11 -76 23 -170 26 -207 6 -56 12 -71 31 -84
26 -17 31 -38 11 -46 -6 -2 -61 -10 -120 -18 -120 -14 -141 -8 -107 31 11 13
18 31 15 44 -3 11 -14 98 -25 191 -26 207 -27 212 -51 218 -21 6 -26 35 -6 42
48 19 232 31 242 16z m1619 -76 c21 -40 41 -63 72 -81 70 -41 57 -73 -21 -53
-39 10 -48 9 -64 -5 -27 -25 -39 -4 -47 86 -11 124 12 144 60 53z"/>
<path d="M4996 1959 c-14 -17 -26 -35 -26 -40 0 -12 27 -11 35 1 10 16 47 2
75 -29 23 -25 136 -71 175 -71 15 0 51 58 41 67 -2 3 -43 6 -90 6 l-86 2 0 27
c0 31 -41 68 -75 68 -14 0 -34 -13 -49 -31z"/>
<path d="M904 1825 c-44 -20 -101 -76 -109 -108 -10 -39 2 -79 23 -75 9 2 18
12 20 23 9 49 104 115 166 115 40 0 86 -46 86 -86 0 -27 25 -43 42 -26 8 8 3
24 -16 56 -62 106 -129 137 -212 101z"/>
<path d="M3698 845 c-14 -8 -35 -34 -46 -57 -17 -36 -19 -51 -12 -89 17 -89
71 -149 134 -149 29 0 135 37 153 54 10 9 8 24 -6 69 -9 32 -21 58 -24 58 -4
0 -20 -2 -36 -6 l-29 -6 21 -50 c21 -50 21 -51 2 -65 -70 -51 -155 40 -155
165 0 30 29 71 51 71 5 0 7 5 4 10 -8 14 -25 12 -57 -5z"/>
<path d="M3528 793 c-22 -6 -22 -2 3 -102 11 -45 19 -85 16 -88 -6 -5 -79 72
-120 128 -23 31 -34 38 -51 34 -11 -4 -29 -9 -39 -12 -12 -3 -16 -10 -12 -21
13 -32 35 -147 41 -215 7 -68 7 -68 33 -62 14 4 27 8 29 9 1 2 -6 32 -17 67
-11 35 -22 84 -26 109 l-6 45 27 -30 c144 -163 154 -173 174 -168 11 3 22 8
24 12 2 3 -7 62 -20 131 -13 69 -24 135 -24 148 0 22 -2 23 -32 15z"/>
<path d="M2501 761 c-10 -6 -11 -13 -2 -29 23 -43 2 -162 -35 -199 -29 -29
-74 -30 -100 -2 -23 26 -23 103 0 168 l16 43 -38 -7 c-44 -8 -48 -14 -62 -82
-20 -94 31 -159 133 -170 90 -9 137 27 158 123 14 63 5 117 -23 144 -24 22
-27 23 -47 11z"/>
<path d="M2726 724 c-4 -11 5 -14 41 -14 l46 0 -4 -142 -4 -143 31 -3 31 -3 7
137 c4 76 9 141 11 145 3 3 22 3 44 -1 31 -6 41 -4 46 8 3 8 4 16 3 17 -2 1
-58 5 -125 8 -100 5 -122 3 -127 -9z"/>
<path d="M3070 727 c-51 -18 -80 -67 -80 -138 0 -130 56 -182 177 -164 34 5
56 16 80 40 31 31 33 37 33 107 0 80 -11 111 -52 141 -33 24 -110 31 -158 14z
m100 -27 c23 -13 39 -61 41 -127 4 -93 -31 -135 -97 -119 -35 9 -54 59 -54
141 0 57 3 69 25 90 26 26 54 31 85 15z"/>
<path d="M2135 701 c-27 -6 -28 -8 -11 -18 17 -9 18 -16 9 -62 l-10 -52 35
-14 c19 -8 36 -15 37 -15 2 0 5 38 7 85 3 94 5 92 -67 76z"/>
<path d="M1966 664 c-22 -21 -20 -29 9 -42 22 -10 26 -9 40 18 8 16 15 31 15
35 0 12 -50 4 -64 -11z"/>
<path d="M1515 564 c163 -105 460 -239 660 -298 50 -14 104 -30 120 -35 63
-20 295 -61 399 -71 158 -15 471 -12 619 5 330 39 633 131 935 284 169 87 218
116 205 124 -6 4 -51 -16 -99 -44 -288 -167 -640 -286 -984 -334 -159 -23
-461 -30 -617 -16 -435 40 -832 167 -1189 382 -104 62 -144 65 -49 3z"/>
<path d="M1284 591 c9 -14 161 -113 277 -180 304 -174 624 -282 1039 -351 103
-17 508 -24 650 -11 297 27 595 102 870 218 165 70 430 214 430 233 0 5 -11
17 -24 25 -22 15 -28 13 -112 -36 -125 -72 -222 -120 -349 -172 -630 -257
-1318 -282 -1960 -72 -209 68 -453 182 -630 295 -84 53 -100 60 -145 60 -28 0
-49 -4 -46 -9z"/>
</g>
</svg>
